<svg width="1003" height="810" viewBox="0 0 1003 810" fill="none" xmlns="http://www.w3.org/2000/svg">
<circle cx="535" cy="362" r="132" stroke="#F1931F" stroke-width="2" stroke-dasharray="7 7"/>
<circle cx="535" cy="362" r="235" stroke="#F1931F" stroke-opacity="0.9" stroke-width="2" stroke-dasharray="7 7"/>
<circle cx="535" cy="362" r="335" stroke="#F1931F" stroke-opacity="0.8" stroke-width="2" stroke-dasharray="7 7"/>
<circle cx="294" cy="130" r="12" fill="#F2931D"/>
<path d="M294.782 129.136H298.351V130.674H294.782V134.717H293.147V130.674H289.579V129.136H293.147V125.4H294.782V129.136Z" fill="white"/>
<circle cx="711" cy="207" r="12" fill="#F2931D"/>
<path d="M711.782 206.136H715.351V207.674H711.782V211.717H710.147V207.674H706.579V206.136H710.147V202.4H711.782V206.136Z" fill="white"/>
<circle cx="498" cy="237" r="12" fill="#F2931D"/>
<path d="M498.782 236.136H502.351V237.674H498.782V241.717H497.147V237.674H493.579V236.136H497.147V232.4H498.782V236.136Z" fill="white"/>
<path d="M276.137 468.73L275.982 469.397L276.373 470.986L275.456 471.865L275.183 473.464L274.194 473.979L273.202 474.327L272.591 475.6L273.414 477.149L273.449 479.309C273.277 479.666 272.915 480.421 272.838 480.582C272.76 480.742 272.177 481.501 271.894 481.86L270.898 481.876L270.841 482.508L270.552 483.111" stroke="black" stroke-width="2.5" stroke-miterlimit="4.13936" stroke-linecap="round" stroke-linejoin="round"/>
<path d="M280.75 466.918L290.32 469.584L292.757 476.709L285.043 476.047L288.126 479.134L286.054 479.673L285.063 480.021L284.451 481.294L284.472 483.484L290.457 484.177C296.391 485.872 288.359 485.427 290.703 489.688C291.904 491.871 287.845 492.172 284.238 490.44L280.843 488.81C280.843 488.81 278.334 492.014 278.412 494.39C278.48 496.495 280.623 499.307 280.623 499.307" stroke="black" stroke-width="2.5" stroke-miterlimit="4.13936" stroke-linecap="round" stroke-linejoin="round"/>
<path d="M270.163 482.719L267.855 491.131L265.661 491.067L263.731 493.026L260.813 491.377L258.999 492.237L258.157 493.647L258.94 494.764L260.507 495.105L262.07 495.113L262.798 497.029L261.855 498.307L261.035 498.985L260.231 500.66L260.724 502.38L260.633 504.974L258.478 505.341L257.066 506.394L256.983 507.426L256.79 507.828" stroke="black" stroke-width="2.5" stroke-miterlimit="4.13936" stroke-linecap="round" stroke-linejoin="round"/>
<path d="M252.714 512.713L238.212 518.197" stroke="black" stroke-width="2.5" stroke-miterlimit="4.13936" stroke-linecap="round" stroke-linejoin="round"/>
<path d="M231.625 521.73L213.241 538.608" stroke="black" stroke-width="2.5" stroke-miterlimit="4.13936" stroke-linecap="round" stroke-linejoin="round"/>
<path d="M210.547 536.673L212.228 533.173L208.351 525.624L204.554 520.998L202.772 517.67L207.577 514.701L202.82 512.418C201.944 510.981 200.142 507.901 199.943 507.08C199.743 506.259 199.772 502.684 199.812 501L205.445 497.851L209.735 498.015L212.463 489.928C211.441 489.08 209.488 487.197 209.848 486.447C210.208 485.696 212.444 482.527 213.517 481.037C214.568 480.278 216.961 478.635 218.123 478.138C219.576 477.516 225.297 477.79 225.361 477.656C225.425 477.522 227.491 477.854 228.135 476.514C228.649 475.442 229.378 473.924 229.678 473.299L231.126 470.284C232.707 470.824 235.718 471.5 235.108 469.888C234.344 467.873 233.28 465.796 233.795 464.724C234.309 463.652 230.043 460.862 230.269 460.393C230.449 460.018 229.15 457.686 228.479 456.567L228.31 452.282L228.535 449.752C228.619 448.776 228.666 446.699 228.179 446.202C227.693 445.704 226.335 444.492 225.717 443.948L225.854 440.057L229.592 438.967L226.553 431.903L228.456 430.343L230.999 429.339C232.192 429.829 234.798 430.766 235.672 430.593C236.547 430.419 238.868 428.858 239.92 428.098C240.317 427.328 241.003 425.568 240.563 424.698C240.124 423.827 242.202 421.913 243.297 421.064" stroke="black" stroke-width="2.5" stroke-miterlimit="4.13936" stroke-linecap="round" stroke-linejoin="round"/>
<path d="M250.983 421.539L255.332 425.358L261.495 428.317L273.358 432.281L285.55 431.952L294.259 436.132L294.503 438.887L300.24 440.158L310.806 444.076L318.107 451.703L318.571 455.717L322.121 457.421" stroke="black" stroke-width="2.5" stroke-miterlimit="4.13936" stroke-linecap="round" stroke-linejoin="round"/>
<path opacity="0.25" d="M281.014 505.856L283.456 510.49L286.73 511.568L288.212 510.713L290.098 510.217L292.931 506.549L293.99 502.112L295.019 499.968L296.595 496.685L300.054 494.802L303.536 490.126C303.74 487.696 304.241 482.716 304.605 482.232C304.97 481.747 305.699 478.58 306.018 477.057L310.128 476.393L317.256 475.281L324.135 469.022L326.4 465.163L325.987 464.306" stroke="black" stroke-width="2.5" stroke-miterlimit="4.13936" stroke-linecap="round" stroke-linejoin="round"/>
<path d="M479.591 382.103L480.516 382.746L484.032 380.882L484.318 380.245L486.422 379.615L487.125 379.242L487.872 379.17L489.418 378.35L490.218 377.602L490.504 376.964L493.317 375.473L495.324 375.219L496.87 374.398L497.52 374.702L499.246 374.596L499.348 373.733L499.682 372.908L503.61 371.797L504.351 372.213L505.704 372.143L507.517 372.639L507.982 372.716L508.724 373.132L509.471 373.06L510.174 372.687L511.905 372.094L512.986 371.196L514.658 371.767L526.188 365.654L526.935 365.582L528.763 364.612L529 364.163L529.383 363.15L529.665 363.001L531.168 361.88L533.839 360.464L535.008 360.168L535.473 360.245L536.176 359.872L537.199 360.139L538.552 360.07L539.298 359.998L540.321 360.265L541.49 359.969L542.052 359.671L542.852 358.923L543.133 358.774L543.657 357.687L544.554 356.563L544.932 356.039L546.019 354.654L546.634 353.68L547.11 352.78L548.094 352.258L549.083 351.248L549.645 350.95L550.203 351.14L550.906 350.767L551.09 350.993L551.556 351.07L552.908 351.001L553.568 350.327L555.114 349.507L555.633 348.908L556.196 348.61L557.277 347.713L562.901 344.731L564.394 344.587L565.839 344.63L566.12 344.481L566.586 344.558L567.57 344.037L568.651 343.139L569.214 342.841L571.55 342.25L572.86 341.879L573.466 341.882L574.028 341.584L574.406 341.059L574.925 340.461L576.288 339.414L577.834 338.594L579.478 337.399L581.029 336.091L581.829 335.343L582.814 334.821L583.279 334.898L586.372 333.258L586.649 333.597L587.861 333.602L589.209 334.021L590.605 334.252L591.308 333.879L591.768 334.444L591.249 335.043L591.434 335.269L592.321 335.123L593.067 335.051L593.77 334.678L594.512 335.094L595.259 335.022L595.356 334.647L595.54 334.873L596.427 334.726L597.693 334.055L597.509 333.829L597.79 333.68L598.59 332.932L600.136 332.112L600.233 331.737L602.624 330.469L603.792 330.174L604.073 330.025L604.592 329.426L604.316 329.087L604.694 328.562L604.791 328.187L605.072 328.038L605.31 327.588L605.228 326.499L605.606 325.974L606.59 325.452L607.056 325.529L607.759 325.157L607.856 324.781L608.602 324.709L609.305 324.337L609.402 323.961L609.868 324.038L609.965 323.663L609.781 323.437L609.742 322.648L609.655 322.047L609.854 320.808L610.838 320.286L612.661 319.805L612.763 318.942L613 318.492L614.31 318.122L615.013 317.749L616.923 317.869L617.669 317.797L618.048 317.273L619.4 317.203L620.423 317.47L620.666 316.532L621.044 316.008L621.466 315.784L621.563 315.409L621.383 314.695L621.112 313.867L620.652 313.302L620.986 312.477L621.549 312.179L622.756 312.672L622.998 311.734L623.842 311.287L623.658 311.061L624.08 310.837L623.91 309.146L624.191 308.997L624.429 308.547L623.542 308.694L623.26 308.843L622.422 308.802L621.35 308.722L620.604 308.794L619.862 308.378L619.775 307.777L620.337 307.479L620.706 307.931L620.987 307.782L621.966 307.748L622.247 307.599L622.994 307.527L623.881 307.38L626.272 306.113L626.79 305.514L627.353 305.216L628.434 304.319L628.677 303.381L629.52 302.933L629.336 302.707L629.855 302.108L629.394 301.543L629.123 300.716L628.944 300.001L629.225 299.852L629.404 300.567L629.588 300.793L629.87 300.644L630.335 300.721L631.038 300.348L631.504 300.425L632.672 300.129L633.05 299.605L633.516 299.682L634.16 300.473L633.879 300.622L634.058 301.337L634.33 302.164L635.343 303.408L635.105 303.858L636.172 304.426L635.934 304.875L636.298 305.816L636.482 306.042L636.2 306.191L636.569 306.643L637.126 306.833L637.408 306.684L637.553 306.122L637.834 305.972L638.392 306.163L638.678 305.525L639.197 304.926L640.743 304.106L641.49 304.034L642.135 304.826L643.022 304.679L644.147 304.083L644.384 303.633L647.197 302.142L647.294 301.767L647.759 301.844L648.559 301.096L648.84 300.947L649.219 300.422L649.645 299.71L651.473 298.741L652.031 298.931L652.961 299.085L653.567 299.088L655.298 298.494L656.142 298.046L657.587 298.09L657.771 298.316L658.702 298.47L659.259 298.66L659.865 298.663L660.699 299.192L661.256 299.382L661.441 299.608L662.735 300.703L663.103 301.155L663.283 301.869L663.186 302.245L662.904 302.394L662.57 303.219L662.104 303.142L661.542 303.44L661.581 304.229L662.555 304.684L662.836 304.535L663.02 304.761L664.562 304.429L664.843 304.28L665.59 304.208L666.477 304.061L667.224 303.989L667.505 303.84L669.415 303.96L670.768 303.891L671.791 304.158L672.256 304.235L673.143 304.088L674.971 303.119L675.068 302.744L675.873 301.508L676.857 300.986L677.696 301.027L678.162 301.104L679.049 300.957L680.261 300.962L681.24 300.929L682.636 301.16L683.524 301.013L683.8 301.352L684.731 301.506L685.38 301.809L685.802 301.586L686.641 301.627L687.993 301.557L688.459 301.634L689.947 301.978L691.019 302.058L691.76 302.474L693.578 302.482L693.855 302.821L694.32 302.898L695.067 302.826L696.138 302.905L697.064 303.547L698.271 304.041L698.693 303.817L700.186 303.673L701.073 303.526L702.096 303.793L702.886 304.022L703.352 304.099L704.656 304.217L705.727 304.297L706.474 304.224L707.638 304.417L709.131 304.273L710.018 304.126L710.862 303.679L711.749 303.532L712.83 302.635L713.393 302.337L713.587 301.587L713.824 301.137L714.11 300.499L714.673 300.201L715.192 299.602L715.289 299.227L715.754 299.304L716.035 299.155L716.219 299.381L716.641 299.158L717.199 299.348L717.945 299.276L718.93 298.754L719.308 298.229L720.476 297.934L721.461 297.412L721.276 297.186L722.401 296.589L722.644 295.651L722.557 295.05L722.659 294.186L722.896 293.737L722.528 293.284L722.261 291.969L722.174 291.367L721.442 289.974L721.404 289.185L721.501 288.81L721.418 287.721L721.7 287.571L722.218 286.973L721.666 286.294L721.947 286.145L721.487 285.58L721.584 285.205L721.22 284.264L720.852 283.812L720.813 283.023L720.726 282.421L720.081 281.63L719.616 281.553L718.826 281.324L718.36 281.247L717.531 280.23L717.997 280.307L718.603 280.309L719.344 280.726L719.529 280.952L719.994 281.029L720.639 281.82L721.104 281.897L722.117 283.141L722.204 283.742L722.384 284.457L723.397 285.7L724.933 285.857L725.593 285.183L725.506 284.582L725.942 282.894L726.558 281.919L726.563 281.431L726.66 281.056L726.995 280.231L726.35 279.439L726.544 278.689L725.899 277.898L726.055 276.358L726.336 276.209L726.065 275.382L726.87 274.145L727.049 274.86L726.995 275.536L727.083 276.137L727.262 276.851L727.252 277.828L726.913 279.141L727 279.743L727.179 280.457L727.402 281.472L727.392 282.449L727.29 283.312L727.474 283.538L727.6 284.929L727.125 285.828L726.79 286.653L726.969 287.368L727.057 287.969L727.236 288.683L727.789 289.362L727.827 290.151L728.38 290.829L728.559 291.544L728.733 292.746L728.394 294.06L729.223 295.077L730.149 295.719L730.701 296.398L731.627 297.04L732.883 297.346L734.54 299.381L734.259 299.53L734.206 300.206L734.104 301.069L734.375 301.897L734.555 302.611L733.939 303.585L733.139 304.333L732.571 305.12L731.771 305.868L731.238 307.932L730.617 309.394L730.142 310.294L727.329 311.785L726.442 311.931L726.161 312.08L726.151 313.057L726.33 313.771L725.996 314.596L725.152 315.044L724.628 316.131L724.013 317.105L723.256 318.154L722.829 318.865L722.17 319.539L721.748 319.763L721.176 321.037L720.933 321.975L720.458 322.875L719.939 323.474L719.653 324.111L718.669 324.633L717.83 324.592L716.943 324.739L716.293 324.436L715.547 324.508L714.562 325.03L713.724 324.989L712.468 324.683L712.008 324.118L711.261 324.19L710.432 323.172L710.161 322.345L709.148 321.101L708.866 321.25L708.348 321.849L707.969 322.373L707.872 322.748L707.169 323.121L706.142 323.342L705.957 323.116L704.973 323.638L704.876 324.013L704.314 324.312L703.795 324.91L702.767 325.132L702.345 325.355L701.317 325.576L699.965 325.646L699.407 325.456L697.594 324.96L696.576 324.205L695.185 323.485L694.579 323.483L694.763 323.709L694.201 324.007L693.459 323.591L693.275 323.365L693.653 322.841L693.008 322.049L692.262 322.121L690.434 323.09L689.362 323.011L688.058 322.893L687.074 323.415L686.609 323.338L685.44 323.633L684.175 324.304L683.249 323.662L682.968 323.811L681.615 323.881L680.587 324.102L679.142 324.058L678.396 324.131L677.043 324.2L676.583 323.635L676.117 323.558L675.749 323.106L675.754 322.617L675.667 322.016L675.022 321.224L675.119 320.849L675.356 320.399L675.269 319.798L675.09 319.084L675.187 318.708L675.522 317.883L674.509 316.64L673.626 316.298L673.345 316.447L672.696 316.144L671.954 315.728L670.688 316.399L670.683 316.887L670.165 317.486L669.883 317.635L669.418 317.558L668.86 317.368L668.579 317.517L668.618 318.306L668.802 318.532L668.705 318.907L668.327 319.432L666.78 320.252L666.131 319.949L665.243 320.095L665.059 319.869L663.852 319.376L662.868 319.898L662.208 320.571L662.15 321.735L662.615 321.812L662.984 322.265L663.406 322.041L664.147 322.457L665.078 322.611L664.981 322.986L665.16 323.701L665.345 323.927L665.81 324.004L666.639 325.022L668.748 323.903L669.538 324.132L670.28 324.548L672.5 326.285L672.122 326.809L671.322 327.557L670.425 328.681L669.862 328.979L669.339 330.066L668.316 329.799L667.428 329.945L666.595 329.416L666.231 328.476L666.653 328.252L666.474 327.538L666.29 327.311L665.64 327.008L665.218 327.232L664.927 328.358L665.106 329.072L665.756 329.375L665.751 329.863L666.304 330.542L666.526 331.557L667.54 332.801L667.443 333.176L667.53 333.777L668.368 333.818L668.553 334.044L669.159 334.047L669.905 333.975L670.928 334.242L671.631 333.869L672.281 334.172L673.11 335.19L674.938 334.221L676.779 336.482L677.57 336.711L678.311 337.127L679.708 337.358L680.905 338.828L681.603 338.943L682.728 338.347L682.873 337.784L682.786 337.183L682.98 336.432L683.688 335.571L684.527 335.612L685.782 335.918L686.345 335.619L686.161 335.393L687.426 334.722L688.633 335.216L689.283 335.519L690.073 335.747L691.193 335.639L691.746 336.318L691.649 336.693L691.644 337.181L691.731 337.783L691.493 338.232L691.672 338.947L691.294 339.471L691.197 339.846L691.566 340.299L691.604 341.088L691.691 341.689L692.239 342.856L692.981 343.272L693.446 343.349L694.052 343.351L695.599 342.531L696.035 340.843L696.782 340.771L697.16 340.246L698.426 339.575L699.226 338.827L699.604 338.303L699.241 337.362L699.294 336.687L699.58 336.049L700.322 336.465L701.209 336.319L701.403 335.568L700.661 335.152L700.293 334.7L701.558 334.029L701.937 333.505L702.223 332.867L703.483 332.685L704.836 332.615L705.767 332.769L708.142 332.966L712.331 333.66L713.543 333.665L714.425 334.006L715.817 334.726L716.466 335.029L717.392 335.671L718.367 336.126L718.832 336.203L719.389 336.393L720.936 335.573L720.941 335.085L721.925 334.563L723.045 334.455L723.467 334.231L724.117 334.534L725.047 334.688L725.605 334.878L725.973 335.331L726.061 335.932L725.779 336.081L725.677 336.945L725.624 337.621L725.808 337.847L725.987 338.561L726.821 339.09L727 339.805L727.466 339.882L727.65 340.108L728.353 339.735L729.473 339.627L730.544 339.707L731.01 339.784L732.483 341.593L732.571 342.194L732.934 343.134L732.881 343.81L734.078 345.28L734.441 346.221L734.529 346.822L734.713 347.048L735.454 347.464L736.342 347.318L738.901 347.741L739.648 347.669L740.909 347.487L741.655 347.415L742.542 347.268L743.468 347.91L744.399 348.064L745.665 347.393L746.043 346.869L746.746 346.496L747.492 346.424L746.664 345.407L746.761 345.032L746.998 344.582L747.376 344.057L747.663 343.42L748.181 342.821L748.647 342.898L749.854 343.391L750.644 343.62L751.401 342.571L751.638 342.122L751.74 341.258L752.075 340.433L752.453 339.909L753.903 339.464L754.552 339.767L755.813 339.584L756.928 339.965L757.572 340.756L758.038 340.833L758.222 341.059L758.503 340.91L759.109 340.913L759.391 340.763L760.132 341.18L760.966 341.709L762.076 342.577L762.537 343.143L763.792 343.448L764.258 343.525L765.058 342.777L765.717 342.104L765.349 341.652L765.354 341.163L767.603 339.971L768.442 340.012L769.707 339.341L770.415 338.48L771.254 338.521L772.607 338.451L773.538 338.605L774.982 338.649L776.8 338.656L778.104 338.774L779.36 339.08L779.636 339.419L779.583 340.095L779.486 340.47L779.384 341.333L779.752 341.786L780.034 341.637L780.775 342.053L781.425 342.356L782.312 342.209L783.422 343.078L783.786 344.018L784.522 344.923L786.714 344.894L788.105 345.614L789.739 345.395L790.442 345.022L791.101 344.349L791.804 343.976L792.27 344.053L791.722 342.886L791.916 342.136L793.264 342.555L794.098 343.084L795.547 342.639L797.22 343.209L799.033 343.705L799.862 344.723L800.972 345.591L802.509 345.748L803.997 346.092L804.826 347.109L805.897 347.189L807.163 346.518L807.822 345.844L808.525 345.472L809.272 345.4L810.072 344.652L810.45 344.127L810.266 343.901L810.79 342.814L810.518 341.986L810.339 341.272L810.252 340.671L810.068 340.445L810.495 339.733L811.614 339.625L812.967 339.555L814.174 340.048L814.727 340.727L815.333 340.729L815.711 340.205L815.808 339.829L816.792 339.308L817.539 339.236L818.707 338.94L819.086 338.416L819.604 337.817L820.816 337.822L821.238 337.598L821.616 337.074L821.811 336.323L822.795 335.801L823.26 335.878L824.457 337.348L825.345 337.202L826.271 337.844L827.478 338.337L828.311 338.866L829.194 339.208L829.931 340.113L829.785 340.675L829.969 340.902L830.241 341.729L831.069 342.747L831.995 343.389L833.343 343.808L834.09 343.736L835.161 343.815L835.908 343.743L836.465 343.933L836.931 344.01L838.196 343.339L838.661 343.416L840.014 343.347L840.572 343.537L841.037 343.614L841.827 343.842L841.866 344.631L842.472 344.634L843.024 345.312L843.582 345.502L843.95 345.954L845.158 346.448L846.704 345.628L847.228 344.54L847.141 343.939L846.957 343.713L847.199 342.775L847.762 342.477L847.859 342.101L848.562 341.729L849.308 341.657L851.839 340.315L852.586 340.243L853.143 340.433L853.609 340.51L854.496 340.363L854.971 339.464L854.511 338.898L854.748 338.449L854.564 338.222L853.682 337.881L853.313 337.428L853.367 336.753L853.653 336.115L853.934 335.966L854.453 335.367L854.55 334.992L854.182 334.54L853.624 334.35L853.256 333.897L853.353 333.522L853.169 333.296L853.27 332.433L853.605 331.608L854.172 330.821L853.988 330.595L854.507 329.996L854.604 329.621L855.351 329.549L856.151 328.801L856.529 328.276L857.416 328.13L857.979 327.832L858.497 327.233L858.134 326.292L857.766 325.84L857.771 325.352L857.402 324.899L856.729 322.342L856.641 321.741L855.997 320.95L855.163 320.42L854.557 320.418L854.15 319.177L853.689 318.611L853.418 317.784L854.078 317.11L852.788 315.528L852.381 314.286L851.591 314.058L850.481 313.189L849.928 312.511L848.721 312.018L848.076 311.226L847.989 310.625L848.367 310.1L848.605 309.651L848.61 309.162L849.449 309.203L849.914 309.28L850.704 309.509L851.451 309.437L852.193 309.853L852.561 310.305L854.655 310.652L855.824 310.356L856.847 310.623L857.831 310.102L858.214 309.089L858.549 308.264L858.927 307.74L858.748 307.025L858.379 306.573L858.156 305.558L856.959 304.088L855.888 304.009L855.607 304.158L854.778 303.14L854.88 302.277L854.051 301.259L855.597 300.439L855.564 299.162L855.569 298.673L855.763 297.923L856.281 297.324L856.563 297.175L856.102 296.61L855.453 296.306L854.808 295.515L853.737 295.436L852.806 295.281L852.248 295.091L851.88 294.639L851.414 294.562L851.235 293.848L850.586 293.545L849.388 292.075L848.501 292.221L847.236 292.892L846.775 292.327L846.028 292.399L845.66 291.947L845.762 291.083L846.281 290.484L846.378 290.109L846.902 289.022L846.999 288.647L847.377 288.122L850.47 286.482L850.936 286.559L851.639 286.187L851.551 285.585L850.81 285.169L850.441 284.717L850.262 284.002L850.597 283.177L850.975 282.653L851.077 281.79L851.13 281.114L850.064 280.546L849.482 278.102L849.022 277.537L848.935 276.935L848.571 275.995L848.809 275.545L849.653 275.098L850.171 274.499L849.992 273.784L849.905 273.183L850.099 272.433L851.083 271.911L851.369 271.273L851.423 270.597L851.801 270.073L857.144 267.24L857.241 266.865L857.246 266.377L857.624 265.852L857.862 265.403L857.256 265.4L856.514 264.984L856.33 264.758L855.68 264.455L854.386 263.36L853.46 262.718L852.67 262.489L851.744 261.847L851.279 261.77L850.629 261.467L850.45 260.752L850.828 260.228L851.163 259.403L850.702 258.837L850.237 258.76L849.35 258.907L848.889 258.342L848.802 257.74L848.763 256.951L848.395 256.499L847.605 256.271L847.047 256.08L846.213 255.551L845.467 255.623L844.822 254.832L844.735 254.23L844.274 253.665L844.371 253.29L844.289 252.2L845.555 251.529L845.889 250.704L845.186 251.077L844.44 251.149L843.698 250.733L843.33 250.281L843.524 249.53L843.528 249.042L843.441 248.441L842.981 247.875L843.218 247.426L843.412 246.675L844.217 245.439L844.13 244.837L844.508 244.313L846.845 243.722L847.136 242.596L846.86 242.257L847.21 239.967L847.728 239.368L847.365 238.427L847.094 237.6L846.449 236.809L845.615 236.279L844.267 235.861L842.847 233.376L842.581 232.06L842.494 231.459L841.752 231.042L840.453 230.436L839.57 230.094L838.921 229.791L837.995 229.149L837.529 229.072L836.88 228.769L835.813 228.201L834.883 228.047L834.325 227.857L833.86 227.78L833.254 227.777L832.885 227.325L832.944 226.161L832.58 225.22L832.309 224.393L831.567 223.977L831.48 223.375L831.17 221.759L831.829 221.085L832.814 220.564L832.915 219.7L833.066 218.649L832.887 217.934L832.799 217.333L832.615 217.107L832.058 216.917L832.053 217.405L830.889 217.213L830.705 216.986L830.24 216.909L829.498 216.493L829.033 216.416L828.48 215.738L828.117 214.797L828.311 214.047L827.021 212.464L825.446 211.518L824.796 211.215L823.167 210.946L822.983 210.72L822.236 210.792L821.349 210.938L820.792 210.748L820.326 210.671L820.055 209.844L819.594 209.278L818.242 209.348L818.145 209.723L816.879 210.394L815.667 210.389L814.504 210.197L814.135 209.744L813.67 209.667L813.389 209.816L813.011 210.341L812.492 210.94L812.21 211.089L811.41 211.837L810.286 212.433L809.767 213.032L809.849 214.122L806.053 216.135L805.306 216.207L804.143 216.014L803.58 216.312L802.412 216.608L801.665 216.68L800.865 217.428L799.837 217.649L798.756 218.546L797.49 219.217L796.744 219.289L795.857 219.436L795.013 219.883L794.494 220.482L793.65 220.929L793.044 220.927L792.86 220.701L792.119 220.285L790.722 220.053L789.462 220.236L790.107 221.028L788.841 221.699L788.012 220.681L787.081 220.527L786.747 221.352L786.926 222.066L787.013 222.668L786.635 223.192L785.932 223.565L784.541 222.845L783.653 222.992L783.556 223.367L782.848 224.228L781.729 224.336L780.56 224.632L779.716 225.079L779.348 224.627L778.466 224.286L778.519 223.61L778.335 223.383L777.787 222.217L777.327 221.652L777.24 221.05L777.579 219.737L777.395 219.511L777.308 218.909L776.663 218.118L776.576 217.517L775.931 216.725L775.844 216.124L775.941 215.749L775.112 214.731L775.074 213.942L775.786 212.593L776.446 211.919L776.873 211.207L777.251 210.683L777.813 210.385L777.445 209.933L776.335 209.064L776.156 208.35L775.787 207.897L775.841 207.222L775.477 206.281L775.39 205.68L773.364 203.192L772.806 203.002L772.719 202.401L772.816 202.026L772.453 201.085L770.427 198.598L769.777 198.294L769.219 198.104L767.92 197.498L767.193 195.617L767.29 195.242L767.203 194.64L766.558 193.849L766.612 193.173L766.151 192.608L766.442 191.482L766.263 190.768L766.782 190.169L767.81 189.948L768.057 188.521L767.034 188.254L766.428 188.252L764.659 188.057L764.106 187.378L762.846 187.561L761.299 188.381L759.297 188.147L759.355 186.983L758.992 186.043L758.439 185.364L756.81 185.095L755.967 185.542L755.598 185.09L755.235 184.149L755.148 183.548L753.94 183.055L753.334 183.052L752.772 183.35L752.122 183.047L751.294 182.03L750.552 181.613L749.762 181.385L748.918 181.832L748.273 181.041L748.002 180.213L748.564 179.915L748.526 179.126L748.807 178.977L749.001 178.226L750.169 177.931L750.732 177.633L750.829 177.257L751.066 176.808L750.887 176.093L750.335 175.415L750.34 174.926L750.902 174.628L751.14 174.178L751.237 173.803L751.518 173.654L751.615 173.279L750.97 172.487L751.067 172.112L751.305 171.662L751.125 170.948L751.223 170.573L751.038 170.347L751.417 169.822L751.378 169.033L751.194 168.807L751.204 167.831L752.188 167.309L753.119 167.463L753.652 165.399L753.987 164.574L754.554 163.788L755.533 163.754L756.464 163.908L756.833 164.36L757.114 164.211L757.73 163.237L757.643 162.636L757.929 161.998L759.189 161.816L759.752 161.518L760.358 161.52L761.201 161.073L760.838 160.132L760.372 160.055L759.35 159.788L758.462 159.935L758.094 159.482L760.906 157.991L760.446 157.426L759.98 157.349L759.234 157.421L758.531 157.794L757.886 157.002L759.399 154.905L760.485 153.52L761.144 152.846L761.566 152.623L762.313 152.551L762.875 152.252L763.675 151.504L763.588 150.903L763.593 150.415L764.025 149.215L764.403 148.69L765.387 148.168L765.853 148.245L766.405 148.924L767.384 148.89L767.768 147.878L768.286 147.279L769.13 146.831L769.596 146.908L770.58 146.387L771.196 145.413L771.293 145.037L771.579 144.4L771.492 143.799L771.729 143.349L771.55 142.634L771.463 142.033L771.56 141.658L770.818 141.242L769.887 141.088L769.243 140.296L769.155 139.695L769.252 139.32L769.257 138.831L769.776 138.232L770.242 138.309L771.226 137.788L772.065 137.829L772.772 136.967L773.767 135.469L774.145 134.945L774.15 134.456L774.247 134.081L774.397 133.03L773.85 131.863L773.486 130.923L773.399 130.321L772.754 129.53L770.897 128.734L773.007 127.615L775.295 127.212L775.256 126.423L775.353 126.047L774.985 125.595L774.99 125.107L775.324 124.282L776.818 124.138L777.618 123.39L777.715 123.014L779.062 123.433L779.528 123.51L779.349 122.796L779.543 122.045L779.78 121.596L780.721 120.773L781.705 120.251L781.991 119.614L782.976 119.092L783.354 118.568L784.057 118.195L784.716 117.521L786.069 117.452L787.334 116.781L787.431 116.406L786.782 116.103L786.321 115.537L786.937 114.563L787.315 114.039L787.417 113.175L788.217 112.427L787.854 111.487L788.373 110.888L788.004 110.436L786.375 110.166L785.547 109.148L785.644 108.773L785.275 108.321L785.372 107.946L786.08 107.085L786.458 106.56L786.88 106.337L787.074 105.586L786.43 104.795L785.964 104.718L785.315 104.415L784.064 103.621L783.322 103.204L782.954 102.752L781.926 102.973L781.504 103.197L780.665 103.156L779.4 103.827L779.395 104.315L779.114 104.464L778.372 104.048L777.572 104.796L776.025 105.616L774.77 105.311L775.109 103.997L775.488 103.473L776.006 102.874L775.081 102.232L774.896 102.006L773.461 100.986L773.277 100.759L772.536 100.343L771.789 100.415L771.508 100.564L770.902 100.562L770.436 100.485L769.51 99.8426L767.945 97.9205L768.468 96.8333L768.944 95.9338L769.186 94.9957L768.818 94.5435L768.212 94.541L767.47 94.1248L766.724 94.1969L766.258 94.1198L765.895 93.1793L765.623 92.3518L765.347 92.0126L764.6 92.0847L763.403 90.6149L762.332 90.5354L761.493 90.4943L761.309 90.2682L760.659 89.9651L760.756 89.5899L760.48 89.2507L759.83 88.9475L759.646 88.7214L759.04 88.7189L758.483 88.5288L757.639 88.9761L757.033 88.9737L756.568 88.8966L755.923 88.1052L755.457 88.0282L755.089 87.5759L755.176 88.1773L755.36 88.4034L754.842 89.0023L754.837 89.4905L755.205 89.9428L755.908 89.5701L756.65 89.9863L756.553 90.3615L756.131 90.5851L755.108 90.318L753.94 90.6138L753.28 91.2872L753.459 92.0016L752.941 92.6005L752.562 93.1248L751.859 93.4976L753.028 93.2018L753.309 93.0527L754.322 94.2964L754.317 94.7847L754.036 94.9338L753.517 95.5327L753.42 95.9079L752.955 95.8309L752.673 95.98L752.576 96.3552L751.873 96.728L750.666 96.2347L749.876 96.0062L749.692 95.78L750.114 95.5563L750.492 95.032L748.945 95.8521L748.388 95.662L747.035 95.7316L745.77 96.4025L745.586 96.1764L745.489 96.5516L744.926 96.8498L744.126 97.5978L743.098 97.819L743.282 98.0451L741.649 98.2638L741.552 98.6391L741.736 98.8652L742.201 98.9422L743.214 100.186L743.209 100.674L743.578 101.126L743.34 101.576L744.814 103.385L744.901 103.987L744.804 104.362L744.983 105.076L744.28 105.449L744.183 105.824L743.436 105.896L742.176 106.079L741.526 105.776L738.967 105.352L737.895 105.273L736.872 105.006L735.481 104.286L734.875 104.284L733.479 104.053L732.776 104.425L732.397 104.95L732.203 105.7L731.966 106.15L730.419 106.97L727.859 106.546L727.297 106.845L726.55 106.917L722.754 108.929L721.954 109.677L721.949 110.166L721.571 110.69L721.658 111.291L722.303 112.083L723.136 112.612L723.078 113.776L722.981 114.152L724.144 114.344L724.329 114.57L724.275 115.246L723.15 115.843L722.913 116.292L720.241 117.709L720.702 118.274L719.999 118.647L719.635 117.706L719.689 117.03L719.509 116.316L719.606 115.941L719.054 115.262L719.059 114.774L718.506 114.096L718.327 113.381L718.38 112.705L717.314 112.138L717.033 112.287L716.567 112.21L716.664 111.834L716.015 111.531L715.176 111.49L714.289 111.637L713.91 112.161L713.906 112.65L713.668 113.099L713.571 113.475L713.658 114.076L714.487 115.093L714.85 116.034L714.753 116.409L714.516 116.859L714.419 117.234L714.317 118.098L714.133 117.872L713.953 117.157L713.866 116.556L713.687 115.841L713.222 115.764L713.134 115.163L712.95 114.937L711.927 114.67L710.662 115.341L710.565 115.716L709.115 116.161L707.947 116.457L707.762 116.23L707.297 116.153L706.032 116.824L705.498 118.888L706.051 119.566L706.23 120.281L706.967 121.185L706.962 121.674L707.33 122.126L707.233 122.501L706.249 123.023L705.783 122.946L705.415 122.494L704.673 122.077L704.208 122.001L703.418 121.772L703.563 121.209L703.389 120.006L702.55 119.965L702.405 120.528L702.123 120.677L702.026 121.053L701.28 121.125L701.042 121.574L700.761 121.723L700.664 122.099L700.848 122.325L700.606 123.263L700.79 123.489L700.324 123.412L699.68 122.621L700.199 122.022L700.296 121.646L700.301 121.158L700.819 120.559L700.916 120.184L700.451 120.107L699.845 120.105L699.287 119.914L698.822 119.837L698.172 119.534L699.719 118.714L698.977 118.298L697.809 118.594L696.825 119.116L695.797 119.337L695.559 119.787L695.365 120.537L695.079 121.174L695.026 121.85L694.929 122.226L695.205 122.565L695.108 122.94L695.937 123.957L695.84 124.333L696.489 124.636L696.95 125.201L696.756 125.952L696.702 126.628L697.163 127.193L697.066 127.568L696.416 127.265L696.237 126.551L695.869 126.098L694.943 125.456L694.477 125.379L694.574 125.004L693.745 123.986L692.451 122.892L691.709 122.475L690.357 122.545L690.017 123.858L689.455 124.156L688.432 123.889L687.079 123.959L686.056 123.692L685.45 123.689L683.904 124.509L684.786 124.851L685.901 125.231L687.714 125.727L687.898 125.953L688.18 125.804L688.824 126.595L688.543 126.744L687.937 126.742L687.472 126.665L686.914 126.475L686.633 126.624L685.464 126.92L684.534 126.766L684.073 126.2L683.186 126.347L682.342 126.794L682.105 127.244L682.003 128.108L681.809 128.858L682.638 129.876L682.4 130.325L682.022 130.85L681.459 131.148L680.572 131.295L679.025 132.115L678.366 132.788L678.026 134.101L677.658 133.649L677.663 133.161L677.392 132.333L676.184 131.84L675.016 132.136L674.454 132.434L673.838 133.408L673.833 133.896L673.455 134.421L671.908 135.241L671.021 135.387L671.486 135.464L672.373 135.318L672.936 135.02L673.12 135.246L673.585 135.323L674.046 135.888L675.117 135.967L675.859 136.384L675.297 136.682L674.598 136.566L673.299 135.96L672.742 135.77L672.276 135.693L671.205 135.613L670.642 135.912L668.083 135.488L666.255 136.457L665.174 137.354L664.471 137.727L663.811 138.4L662.643 138.696L662.264 139.22L661.561 139.593L661.464 139.968L661.46 140.457L661.081 140.981L659.578 142.102L659.297 142.251L658.919 142.775L657.653 143.446L657.275 143.971L656.572 144.343L656.848 144.682L657.023 145.885L657.202 146.6L656.586 147.574L656.218 147.121L655.476 146.705L655.292 146.479L655.389 146.104L654.739 145.801L654.182 145.611L653.11 145.531L651.564 146.351L651.467 146.726L651.001 146.649L650.385 147.623L650.749 148.564L651.117 149.016L651.481 149.957L651.199 150.106L650.681 150.705L650.118 151.003L650.031 150.402L650.593 150.103L650.409 149.877L648.834 148.932L648.557 148.593L648.276 148.742L647.67 148.739L647.724 148.063L647.263 147.498L646.473 147.269L646.008 147.192L644.985 146.925L643.816 147.221L643.157 147.894L642.454 148.267L642.357 148.642L641.794 148.941L640.907 149.087L640.345 149.385L639.457 149.532L639.176 149.681L638.245 149.527L637.688 149.337L636.801 149.484L633.776 148.983L633.126 148.68L632.568 148.49L631.681 148.636L630.75 148.482L629.863 148.629L628.84 148.362L627.953 148.508L626.46 148.653L625.112 148.234L623.9 148.229L622.353 149.049L622.116 149.499L621.553 149.797L621.175 150.321L620.937 150.771L621.766 151.789L621.669 152.164L621.291 152.688L621.286 153.176L622.023 154.081L622.765 154.497L624.161 154.728L624.583 154.505L625.421 154.546L625.509 155.147L625.693 155.373L625.872 156.088L626.609 156.992L626.187 157.216L626.182 157.704L626.269 158.305L627.282 159.549L627.748 159.626L628.489 160.042L629.28 160.271L629.464 160.497L630.206 160.913L630.574 161.365L631.039 161.442L631.684 162.234L632.334 162.537L633.497 162.73L633.313 162.503L633.594 162.354L633.88 161.717L634.583 161.344L634.962 160.82L635.156 160.069L634.971 159.843L635.34 160.296L635.243 160.671L635.606 161.611L635.509 161.987L635.596 162.588L634.893 162.961L635.17 163.3L635.257 163.901L635.62 164.842L636.173 165.52L636.915 165.936L637.564 166.24L638.03 166.317L638.858 167.334L639.464 167.337L640.206 167.753L642.301 168.099L642.669 168.552L643.134 168.629L643.314 169.343L643.498 169.569L643.444 170.245L643.629 170.471L643.992 171.412L644.273 171.263L644.879 171.265L645.063 171.491L644.36 171.864L644.355 172.352L645.092 173.257L645.272 173.971L645.64 174.424L645.819 175.138L646.556 176.043L646.779 177.058L646.682 177.433L647.142 177.998L647.132 178.975L647.593 179.54L647.874 179.391L647.971 179.016L647.695 178.677L647.608 178.075L647.845 177.625L647.942 177.25L648.505 176.952L648.689 177.178L649.339 177.481L651.181 179.742L650.899 179.892L650.802 180.267L649.818 180.789L648.887 180.635L647.903 181.156L648.271 181.609L648.451 182.323L648.169 182.472L647.428 182.056L647.244 181.83L646.962 181.979L646.725 182.429L646.909 182.655L646.904 183.143L646.71 183.894L646.429 184.043L646.191 184.493L645.91 184.642L645.813 185.017L645.808 185.505L645.711 185.88L645.289 186.104L645.095 186.854L645.279 187.081L644.993 187.718L644.94 188.394L644.843 188.769L644.741 189.633L644.406 190.458L644.309 190.833L643.747 191.131L643.141 191.129L643.044 191.504L643.504 192.069L643.407 192.444L643.494 193.046L643.674 193.76L644.687 195.004L644.449 195.454L644.352 195.829L644.25 196.692L643.435 198.905L641.738 200.776L641.539 202.015L640.642 203.138L639.556 204.524L638.193 205.57L637.296 206.693L636.215 207.59L635.934 207.739L635.129 208.976L635.313 209.202L635.779 209.279L636.423 210.07L636.889 210.147L637.495 210.15L637.96 210.227L637.955 210.715L637.533 210.939L636.695 210.898L636.229 210.821L635.342 210.967L634.329 209.723L633.582 209.796L633.485 210.171L633.669 210.397L633.572 210.772L632.864 211.633L631.318 212.453L630.518 213.201L630.14 213.726L629.858 213.875L629.524 214.7L629.242 214.849L629.887 215.64L630.353 215.717L630.813 216.283L630.532 216.432L630.066 216.355L629.087 216.388L628.622 216.311L628.34 216.46L628.243 216.835L629.533 218.418L629.998 218.495L629.901 218.871L630.085 219.097L629.804 219.246L629.014 219.017L628.272 218.601L627.904 218.149L627.438 218.072L626.513 217.429L626.231 217.579L625.994 218.028L626.454 218.594L626.357 218.969L626.541 219.195L626.444 219.57L626.076 219.118L625.145 218.964L624.442 219.337L624.345 219.712L623.361 220.234L622.701 220.907L622.42 221.056L622.604 221.282L622.367 221.732L623.012 222.524L623.375 223.464L623.84 223.541L624.669 224.559L625.372 224.186L625.838 224.263L625.644 225.013L625.406 225.463L625.401 225.951L624.941 225.386L624.291 225.083L623.084 224.59L622.9 224.364L622.11 224.135L621.833 223.796L621.087 223.868L620.805 224.017L620.34 223.94L619.356 224.462L619.54 224.688L618.837 225.061L618.74 225.436L618.177 225.734L618.454 226.073L618.173 226.222L617.935 226.672L617.373 226.97L617.188 226.744L617.193 226.256L615.797 226.025L615.375 226.249L615.278 226.624L614.435 227.071L613.916 227.67L613.819 228.045L613.537 228.194L613.353 227.968L613.45 227.593L612.519 227.439L610.978 227.771L610.697 227.92L609.247 228.365L608.36 228.511L607.332 228.732L606.066 229.403L604.617 229.848L603.356 230.031L601.809 230.851L600.5 231.221L599.332 231.517L598.067 232.188L597.039 232.409L593.945 234.049L592.219 234.155L591.051 234.451L589.601 234.895L588.336 235.566L588.52 235.792L586.973 236.612L586.498 237.512L586.493 238L586.44 238.676L587.085 239.468L588.059 239.922L588.34 239.773L588.616 240.112L589.082 240.189L590.435 240.12L590.619 240.346L591.642 240.613L592.388 240.541L593.275 240.394L594.541 239.723L595.845 239.841L596.732 239.695L597.198 239.772L597.382 239.998L597.663 239.849L598.128 239.926L598.405 240.265L599.195 240.494L599.942 240.422L600.407 240.499L600.964 240.689L602.317 240.619L602.783 240.696L603.064 240.547L603.951 240.4L604.974 240.668L607.505 239.326L608.251 239.254L611.277 239.754L611.553 240.093L612.343 240.322L612.808 240.399L613.831 240.666L614.903 240.746L615.834 240.9L616.115 240.751L616.997 241.092L617.647 241.395L618.107 241.961L618.388 241.812L618.393 241.323L618.675 241.174L618.912 240.725L621.584 239.308L621.768 239.534L622.466 239.65L623.019 240.328L623.3 240.179L623.397 239.804L623.678 239.655L624.328 239.958L625.031 239.585L625.307 239.924L624.604 240.297L624.507 240.672L623.241 241.343L623.794 242.022L623.789 242.51L623.595 243.26L623.076 243.859L622.698 244.384L621.951 244.456L621.248 244.828L621.151 245.204L620.589 245.502L619.881 246.363L619.319 246.661L618.339 246.695L615.44 247.584L614.78 248.258L613.98 249.006L613.413 249.792L612.894 250.391L612.332 250.689L611.163 250.985L608.773 252.252L608.254 252.851L607.973 253L607.595 253.525L606.611 254.046L606.092 254.645L604.967 255.242L604.448 255.841L604.443 256.329L604.346 256.704L604.53 256.93L605.461 257.084L606.019 257.274L606.809 257.503L607.551 257.919L607.032 258.518L606.566 258.441L604.894 257.871L604.196 257.755L604.011 257.529L603.265 257.601L602.465 258.349L596.278 261.629L596.739 262.195L597.16 261.971L597.345 262.197L597.107 262.647L597.713 262.649L598.271 262.84L598.833 262.541L600.467 262.323L600.932 262.4L598.823 263.518L597.936 263.665L596.389 264.485L596.292 264.86L596.476 265.086L595.768 265.947L595.211 265.757L594.746 265.68L594.464 265.829L593.912 265.151L594.755 264.703L595.463 263.842L595.982 263.243L595.337 262.452L594.266 262.372L593.985 262.522L592.913 262.442L592.269 261.651L592.506 261.201L591.343 261.008L590.974 260.556L590.131 261.003L589.244 261.15L588.216 261.371L587.697 261.97L586.669 262.191L585.971 262.076L583.959 262.819L583.028 262.665L581.578 263.109L581.2 263.634L580.584 264.608L579.038 265.428L578.519 266.027L577.394 266.623L578.039 267.415L578.688 267.718L578.965 268.057L579.895 268.211L581.243 268.63L582.358 269.01L584.452 269.356L585.563 270.225L586.212 270.528L587.279 271.096L587.928 271.399L588.854 272.041L589.499 272.833L589.218 272.982L589.067 274.033L589.949 274.375L590.134 274.601L591.525 275.32L592.722 276.79L592.994 277.618L592.989 278.106L592.557 279.306L592.276 279.455L590.923 279.525L590.361 279.823L591.292 279.977L591.287 280.465L590.584 280.838L588.998 280.869L588.208 280.641L587.466 280.224L587.801 279.399L586.919 279.058L585.891 279.279L584.81 280.176L584.805 280.664L584.708 281.039L584.286 281.263L583.908 281.787L583.811 282.163L583.99 282.877L583.936 283.553L584.397 284.118L584.484 284.72L585.129 285.511L585.778 285.814L586.569 286.043L585.866 286.416L586.694 287.433L586.597 287.808L585.948 287.505L585.327 288.968L584.43 290.091L584.149 290.24L583.067 291.137L582.083 291.659L581.055 291.88L579.887 292.176L578.859 292.397L577.133 292.503L576.246 292.649L576.333 293.251L576.978 294.042L576.697 294.191L576.163 296.255L574.519 297.45L573.816 297.823L573.07 297.895L572.876 298.645L571.988 298.792L571.058 298.638L569.889 298.934L567.979 298.813L566.767 298.808L565.603 298.616L564.77 298.086L563.563 297.593L562.772 297.365L561.565 296.871L560.116 297.316L559.65 297.239L557.822 298.208L556.562 298.391L554.453 299.509L554.026 300.221L552.906 300.329L552.3 300.327L552.538 299.877L552.077 299.312L551.103 298.857L550.361 298.441L549.164 296.971L548.054 296.102L547.22 295.573L546.755 295.496L545.494 295.679L543.957 295.522L542.653 295.404L542.188 295.327L540.835 295.397M479.591 382.103L479.13 381.538L478.665 381.461M479.591 382.103L479.125 382.026L478.665 381.461M479.591 382.103L479.494 382.479L479.115 383.003L478.509 383L477.947 383.299L476.497 383.743L473.685 385.234L472.604 386.131L471.241 387.178L469.132 388.296L468.143 389.306L466.684 390.727L465.602 391.625L462.509 393.265L461.428 394.162L460.439 395.172L454.674 398.228L453.074 399.724L450.262 401.215L450.596 400.39L450.601 399.902L450.417 399.676L449.486 399.522L449.302 399.296L448.604 399.18L447.954 398.877L447.489 398.8L446.931 398.61L446.466 398.533L445.86 398.531L446.65 398.759L447.392 399.175L448.318 399.818L449.331 401.061L448.953 401.586L449.137 401.812L448.618 402.411L448.521 402.786L448.24 402.935L447.716 404.022L447.241 404.922L446.717 406.009L446.101 406.983L445.902 408.222L445.752 409.273L445.931 409.987L446.105 411.19L446.1 411.678L446.566 411.755L446.75 411.981L446.876 413.372L446.682 414.122L446.401 414.271L445.513 414.418L445.232 414.567L445.048 414.341L444.301 414.413L442.052 415.606L440.747 415.488L439.86 415.634L438.648 415.629L436.922 415.735L435.657 416.406L434.576 417.303L433.208 418.838L432.495 420.187L432.393 421.05L432.238 422.59L432.044 423.34L432.451 424.581L432.717 425.897L432.989 426.725L433.168 427.439L433.818 427.742L434.283 427.819L435.025 428.236L435.393 428.688L435.296 429.063L435.01 429.7L433.463 430.521L433.226 430.97L432.663 431.268L432.566 431.644L429.192 433.433L428.586 433.43L428.304 433.58L428.125 432.865L428.276 431.814L427.447 430.796L426.981 430.719L425.731 429.925L422.803 429.05L420.67 427.914L417.926 427.264L415.366 426.841L411.822 426.939L409.907 427.307L406.45 428.006L403.691 428.821L400.7 429.598L397.704 430.863L395.789 431.231L394.528 431.413L393.781 431.485L392.851 431.331L391.866 431.853L391.12 431.925L390.601 432.524L391.251 432.827L391.857 432.83L392.87 434.073L392.724 434.636L393.277 435.315L392.995 435.464L391.599 435.233L390.155 435.189L389.408 435.261L388.521 435.408L387.774 435.48L385.524 436.673L384.865 437.346L383.415 437.791L382.518 438.914L381.902 439.888L381.054 440.824L380.157 441.947L379.27 442.094L378.804 442.017L377.965 441.976L377.078 442.122L376.981 442.497L373.607 444.287L371.876 444.881L370.892 445.402L371.076 445.629L372.618 445.297L373.786 445.001L377.16 443.212L377.907 443.14L378.329 442.916L378.697 443.368L375.885 444.859L374.717 445.155L372.423 446.047L370.087 446.639L369.805 446.788L368.501 446.67L367.149 446.739L365.98 447.035L364.676 446.917L363.508 447.213L362.48 447.434L361.035 447.391L359.682 447.46L358.655 447.681L357.767 447.828L356.647 447.936L356.041 447.934L355.479 448.232L353.845 448.45L351.654 448.479L350.204 448.924L348.9 448.806L347.916 449.328L346.888 449.549L344.648 449.765L342.457 449.794L340.687 449.599L339.335 449.668L337.701 449.887L336.581 449.995L335.597 450.517L334.85 450.589L333.4 451.034L332.232 451.33L331.388 451.777L329.944 451.733L327.66 451.649L323.84 451.408L321.464 451.211L320.533 451.056L320.815 450.907L320.912 450.532L320.727 450.306L320.732 449.818L320.786 449.142L320.422 448.201L320.335 447.6L320.529 446.849L320.588 445.685L319.856 444.292L318.474 442.597L317.548 441.954L316.167 440.258L315.9 438.942L315.974 436.313L316.507 434.25L317.923 432.528L318.641 430.69L319.737 428.328L320.358 426.866L320.794 425.177L321.604 423.453L321.803 422.214L322.327 421.127L322.579 419.212L322.41 417.521L322.376 416.244L322.575 415.005L322.73 413.466L322.74 412.489L322.701 411.7L322.43 410.873L322.164 409.557L321.519 408.765L321.859 407.452L321.689 405.761L321.743 405.085L321.655 404.484L321.476 403.769L321.205 402.942L320.841 402.001L321.176 401.176L321.181 400.688L321.462 400.539L322.02 400.729L323.275 401.035L324.482 401.528L325.554 401.607L327.1 400.787L328.463 399.741L332.119 397.803L333.849 397.209L341.583 393.109L343.032 392.664L343.833 391.916L345.195 390.87L346.46 390.199L347.488 389.978L348.191 389.605L349.835 388.41L350.761 389.052L351.313 389.73L351.493 390.445L351.764 391.272L351.245 391.871L351.143 392.735L350.527 393.709L350.61 394.798L350.823 396.79L351.37 397.957L351.176 398.707L352.412 400.966L352.315 401.341L354.07 403.001L355.97 404.098L357.643 404.668L360.75 406.259L361.584 406.788L363.3 407.659L364.042 408.075L364.41 408.527L365.06 408.831L365.802 409.247L366.354 409.925L367.052 410.041L366.815 410.49L367.799 409.969L369.617 409.976L370.456 410.017L371.808 409.947L372.274 410.024L373.815 409.693L374.562 409.621L375.449 409.474L376.012 409.176L376.531 408.577L377.19 407.903L381.267 405.742L382.538 404.582L382.732 403.832L382.509 402.817L381.68 401.799L381.045 400.031L380.779 398.715L380.832 398.039L380.929 397.664L380.745 397.438L380.847 396.575L381.182 395.75L380.915 394.434L381.255 393.12L381.633 392.596L382.53 391.473L383.335 390.237L383.713 389.712L383.345 389.26L382.603 388.844L381.348 388.538L379.675 387.968L378.046 387.698L376.374 387.128L374.837 386.972L373.911 386.329L372.655 386.024L373.179 384.937L373.795 383.962L374.275 382.575L374.988 381.225L375.512 380.138L376.133 378.676L376.947 376.463L377.757 374.738L378.756 372.752L379.658 371.14L380.376 369.302L381.186 367.578L381.525 366.265L382.709 364.504L383.422 363.155L384.227 361.918L385.405 360.646L386.064 359.973L387.146 359.076L387.849 358.703L388.779 358.857L389.148 359.309L389.889 359.725L390.592 359.353L390.413 358.638L390.607 357.888L391.31 357.515L392.139 358.533L392.605 358.61L392.983 358.085L392.803 357.371L394.064 357.188L395.417 357.119L396.26 356.671L397.147 356.525L398.345 357.994L398.907 357.696L399.339 356.496L399.717 355.972L401.967 354.779L402.704 355.683L403.445 356.1L404.095 356.403L404.657 356.105L405.826 355.809L407.086 355.626L407.367 355.477L407.654 354.84L407.901 353.413L408.003 352.55L409.167 352.742L410.282 353.123L412.007 353.017L415.382 351.228L416.735 351.158L418 350.487L418.747 350.415L420.191 350.459L420.657 350.536L421.501 350.088L421.743 349.15L422.305 348.852L423.566 348.669L424.497 348.823L425.2 348.451L425.384 348.677L425.946 348.379L426.412 348.456L427.115 348.083L427.672 348.273L428.138 348.35L429.772 348.131L430.94 347.836L432.06 347.727L432.947 347.581L433.228 347.432L434.159 347.586L434.343 347.812L435.323 347.778L435.604 347.629L436.171 346.843L436.69 346.244L435.861 345.226L435.958 344.851M478.665 381.461L478.015 381.158L477.831 380.932L477.089 380.515L477.734 381.307L478.665 381.461ZM435.958 344.851L436.143 345.077M435.958 344.851L435.871 344.25L434.858 343.006L434.679 342.292L434.495 342.066L434.548 341.39L434.369 340.675L434.282 340.074L434.476 339.323L434.437 338.534L434.447 337.558L434.267 336.843L433.996 336.016L433.536 335.451L433.405 334.549L433.041 333.608L433.143 332.744L433.197 332.069L433.73 330.005L433.367 329.064L433.464 328.689L431.898 326.767L431.719 326.053L430.885 325.523L430.609 325.184L429.959 324.881L429.13 323.863L429.043 323.262L428.399 322.471L429.383 321.949L428.186 320.479L427.58 320.476L427.541 319.688L427.173 319.235L426.993 318.521L427.371 317.996L427.89 317.398L428.084 316.647L428.089 316.159L428.186 315.784L428.705 315.185L428.337 314.733L428.623 314.095L428.958 313.27L429.152 312.52L429.438 311.882L429.957 311.283L430.616 310.61L431.135 310.011L431.513 309.487L431.518 308.998L431.756 308.549L431.571 308.323L431.853 308.173L431.208 307.382L432.192 306.86L432.57 306.336L432.667 305.961L432.483 305.735L433.002 305.136L432.357 304.344L432.823 304.421L433.385 304.123L433.482 303.748L432.838 302.956L433.356 302.357L433.55 301.607L433.555 301.119L433.977 300.895L433.371 300.893L432.906 300.816L432.721 300.589L432.964 299.651L433.808 299.204L434.424 298.23L434.802 297.706L434.341 297.14L433.876 297.063L433.973 296.688L433.789 296.462L434.322 294.398L434.138 294.172L434.381 293.234L434.759 292.71L434.293 292.633L434.953 291.959L436.121 291.664L437.106 291.142L438.555 290.697L439.399 290.25L440.199 289.502L440.761 289.203L441.843 288.306L443.21 286.772L444.475 286.101L446.201 285.995L447.467 285.324L448.398 285.478L449.382 284.956L450.463 284.059L450.929 284.136L452.378 283.692L452.844 283.769L454.148 283.887L454.851 283.514L456.3 283.069L457.609 282.699L458.497 282.552L459.791 283.647L462.011 285.384L462.656 286.175L462.743 286.776L462.549 287.527L462.544 288.015L462.491 288.691L461.928 288.989L462.476 290.156L462.839 291.097L463.208 291.549L463.154 292.225L463.886 293.617L464.812 294.26L465.457 295.051L465.728 295.879L465.631 296.254L465.713 297.344L465.476 297.793L466.542 298.361L466.726 298.587L466.392 299.412L466.111 299.561L466.106 300.05L466.29 300.276L466.193 300.651L465.955 301.101L465.858 301.476L465.296 301.774L463.846 302.219L462.678 302.515L460.768 302.394L459.09 302.312L457.461 302.043L455.924 301.886L454.339 301.917L453.171 302.213L452.424 302.285L449.893 303.627L449.515 304.151L448.996 304.75L451.003 304.495L451.706 304.123L452.453 304.051L454.281 303.082L455.168 302.935L456.099 303.089L456.375 303.428L456.181 304.179L456.307 305.569L456.297 306.545L456.66 307.486L457.067 308.727L457.615 309.894L458.444 310.911L459.278 311.441L459.738 312.006L461.823 313.329L462.191 313.782L463.117 314.424L463.582 314.501L463.767 314.727L464.508 315.143L465.483 315.598L467.436 316.019L468.319 316.361L469.996 316.443L471.441 316.486L472.794 316.417L474.379 316.386L476.25 315.717L478.35 315.575L479.373 315.843L481.006 315.624L482.732 315.518L484.226 315.374L485.394 315.078L487.12 314.973L488.57 314.528L489.879 314.158L491.328 313.713L494.038 313.085L495.488 312.64L497.403 312.273L499.692 311.869L501.422 311.275L502.688 310.604L503.153 310.681L505.165 309.938L506.896 309.344L508.162 308.673L509.524 307.627L511.071 306.807L513.796 304.714L515.624 303.745L516.792 303.45L517.257 303.527L518.242 303.005L518.988 302.933L519.788 302.185L520.167 301.66L521.151 301.139L521.248 300.763L522.048 300.015L524.157 298.897L525.975 298.905L526.436 299.47L525.451 299.992L526.464 301.235L528.549 302.559L530.124 303.504L531.569 303.548L531.671 302.684L531.768 302.309L532.471 301.936L533.402 302.09L533.683 301.941L533.78 301.566L534.386 301.568L534.483 301.193L533.227 300.887L532.767 300.322L532.82 299.646L532.636 299.42L531.473 299.227L531.192 299.377L531.104 298.775L531.163 297.611L531.26 297.236L530.518 296.82L529.728 296.591L529.262 296.514L527.997 297.185L527.536 296.62L527.774 296.17L528.618 295.723L530.062 295.766L530.993 295.92L532.341 296.339L532.991 296.642L533.732 297.058L534.469 297.963L534.833 298.903L535.758 299.545L536.311 300.224L537.053 300.64L539.39 300.049L539.671 299.899L540.33 299.226L541.596 298.555L541.416 297.841L541.654 297.391L541.751 297.016L541.664 296.414L541.669 295.926L541.485 295.7L540.835 295.397M540.835 295.397L540.273 295.695L539.104 295.991L538.823 296.14L538.726 296.515L540.835 295.397ZM435.885 344.64L435.788 345.015L436.617 346.033L436.099 346.632L435.532 347.418L435.251 347.567L434.272 347.601L434.087 347.375L433.157 347.22L432.876 347.369L431.988 347.516L430.869 347.624L429.701 347.919L428.067 348.137L427.602 348.06L427.044 347.87L426.341 348.243L425.876 348.165L425.314 348.464L425.129 348.237L424.427 348.61L423.496 348.456L422.236 348.638L421.673 348.936L421.431 349.874L420.588 350.321L420.123 350.244L418.678 350.201L417.932 350.272L416.666 350.943L415.314 351.012L411.941 352.801L410.215 352.906L409.1 352.526L407.937 352.333L407.835 353.196L407.588 354.623L407.302 355.26L407.021 355.409L405.761 355.592L404.593 355.887L404.03 356.185L403.381 355.882L402.639 355.465L401.902 354.561L399.653 355.753L399.275 356.277L398.844 357.478L398.282 357.776L397.084 356.305L396.197 356.452L395.354 356.899L394.001 356.968L392.741 357.151L392.92 357.865L392.542 358.39L392.077 358.312L391.248 357.294L390.545 357.667L390.351 358.418L390.531 359.132L389.828 359.505L389.086 359.088L388.718 358.636L387.787 358.482L387.084 358.854L386.003 359.751L385.344 360.425L384.167 361.697L383.362 362.933L382.65 364.282L381.468 366.043L381.129 367.356L380.32 369.081L379.603 370.919L378.701 372.53L377.703 374.517L376.894 376.241L376.08 378.454L375.46 379.917L374.937 381.004L374.225 382.353L373.745 383.741L373.13 384.715L372.606 385.802L373.862 386.108L374.788 386.751L376.325 386.908L377.997 387.479L379.626 387.749L381.298 388.32L382.554 388.626L383.296 389.042L383.664 389.494L383.286 390.019L382.482 391.255L381.585 392.378L381.207 392.902L380.868 394.216L381.135 395.532L380.801 396.357L380.699 397.22L380.884 397.447L380.787 397.822L380.734 398.498L381.001 399.814L381.636 401.582L382.465 402.6L382.688 403.615L382.495 404.366L381.225 405.525L377.149 407.686L376.49 408.36L375.971 408.958L375.409 409.257L374.522 409.403L373.775 409.475L372.234 409.806L371.769 409.729L370.416 409.798L369.577 409.757L367.76 409.749L366.776 410.271L367.013 409.821L366.315 409.705L365.762 409.027L365.021 408.61L364.371 408.307L364.002 407.855L363.261 407.438L361.544 406.567L360.711 406.037L357.603 404.446L355.93 403.875L354.03 402.777L352.275 401.117L352.372 400.742L351.135 398.482L351.329 397.732L350.781 396.565L350.567 394.573L350.484 393.483L351.1 392.509L351.201 391.645L351.72 391.046L351.448 390.219L351.269 389.504L350.716 388.826L349.79 388.183L348.147 389.378L347.444 389.751L346.417 389.971L345.151 390.642L343.79 391.688L342.99 392.436L341.541 392.881L333.81 396.979L332.079 397.573L328.425 399.511L327.063 400.557L325.517 401.376L324.446 401.297L323.238 400.803L321.983 400.497L321.425 400.307L321.144 400.456L321.14 400.944L320.805 401.769L321.169 402.71L321.441 403.538L321.62 404.252L321.708 404.854L321.654 405.53L321.825 407.221L321.486 408.534L322.13 409.326L322.397 410.642L322.669 411.47L322.708 412.259L322.698 413.236L322.544 414.775L322.345 416.014L322.38 417.291L322.55 418.983L322.298 420.898L321.775 421.985L321.576 423.224L320.767 424.948L320.331 426.637L319.711 428.099L318.616 430.461L317.899 432.299L316.484 434.021L315.951 436.085L315.879 438.714L316.146 440.03L317.528 441.727L318.454 442.369L319.836 444.066L320.568 445.459L320.51 446.623L320.317 447.374L320.404 447.975L320.768 448.916L320.715 449.592L320.71 450.08L320.894 450.307L320.797 450.682L320.516 450.831L319.629 450.977L317.86 450.782L315.766 450.435L313.851 450.802L312.499 450.871L311.379 450.979L309.561 450.971L307.835 451.077L306.948 451.223L305.736 451.218L304.292 451.174L303.361 451.02L301.728 451.238L300.283 451.194L298.887 450.963L295.067 450.721L293.249 450.713L291.761 450.368L290.69 450.288L289.386 450.17L288.314 450.09L286.826 449.746L284.267 449.321L283.195 449.242L278.542 448.47L275.332 447.742L273.844 447.398L270.121 446.781L268.584 446.624L267.096 446.279L261.977 445.43L260.164 444.934L258.584 444.477L255.602 444.276L250.207 443.088L247.928 442.514L244.074 440.995L241.796 440.422L239.052 439.771L235.843 439.043L233.472 438.357L230.728 437.706L228.169 437.282L226.031 436.634L223.937 436.287L222.497 435.755L220.403 435.408L218.73 434.837L216.917 434.341L215.705 434.335L211.982 433.718L209.52 432.918L207.566 432.497L204.216 431.844L200.634 431.152L193.421 429.956L190.211 429.228L186.018 429.022L181.461 427.876L178.621 427.6L173.967 426.829L171.592 426.631L168.567 426.129L166.288 425.556L163.729 425.131L162.153 424.185L159.594 423.761L158.062 423.116L156.67 422.396L155.599 422.316L152.816 420.877L151.003 420.38L149.612 419.66L148.637 419.205L147.614 418.938L146.223 418.218L145.152 418.138L144.686 418.061L142.689 417.339L139.906 415.899L138.558 415.48L137.259 414.873L136.096 414.68L134.423 414.11L132.887 413.953L130.792 413.606L128.417 413.408L124.461 412.752L122.648 412.255L118.46 411.561L116.972 411.217L114.412 410.792L110.035 410.36L107.941 410.013L106.588 410.082L104.819 409.887L103.466 409.956L101.838 409.686L100.626 409.681L98.9969 409.411L97.3243 408.84L96.2531 408.76L94.9491 408.642L94.062 408.788L93.136 408.145L92.7675 407.693L92.3021 407.616L91.1339 407.911L89.5051 407.641L88.0169 407.297L86.6644 407.366L85.7385 406.723L84.1628 405.777L83.7943 405.325L83.7069 404.723L83.3432 403.783L82.9746 403.33L81.1225 402.045L80.3323 401.816L79.867 401.739L78.844 401.472L77.2105 401.69L75.4849 401.795L75.8192 400.97L75.7318 400.369L74.99 399.952L74.1999 399.723L73.1722 399.944L72.1931 399.978L70.8938 399.371L69.0665 400.34L67.244 400.82L66.0758 401.116L64.5297 401.935L63.7831 402.007L64.2628 400.619L65.5278 399.949L66.5069 399.915L68.6154 398.797L69.3228 397.936L70.1614 397.978L70.8643 397.605L72.5946 397.012L73.1569 396.713L73.2538 396.338L73.5348 396.189L73.9612 395.477L74.3393 394.953L75.2263 394.806L76.7725 393.987L76.8694 393.611L78.6966 392.643L79.0746 392.118L79.4963 391.895L80.2428 391.823L80.7614 391.224L81.0424 391.075L80.955 390.473L81.5172 390.175L83.4899 388.644L83.5866 388.268L84.3331 388.197L85.8793 387.377L86.8585 387.343L87.7019 386.896L88.5889 386.75L89.4322 386.303L90.6004 386.007L91.1626 385.709L91.497 384.884L91.778 384.735L91.7828 384.247L92.4951 382.897L93.8474 382.828L94.1286 382.679L94.594 382.756L95.1514 382.946L95.3357 383.173L96.0385 382.8L96.785 382.728L97.672 382.582L97.9532 382.433L98.9808 382.212L99.4994 381.613L100.062 381.315L100.861 380.567L101.142 380.418L101.336 379.667L102.601 378.997L103.028 378.285L103.783 377.236L104.302 376.637L104.68 376.113L104.825 375.55L105.95 374.954L106.187 374.504L107.031 374.057L108.199 373.761L108.296 373.386L109.095 372.638L109.561 372.715L111.291 372.122L112.134 371.675L112.832 371.791L114.941 370.673L115.687 370.601L116.574 370.454L117.137 370.156L117.655 369.557L118.217 369.259L118.736 368.66L119.667 368.815L120.045 368.29L120.747 367.918L121.213 367.995L123.04 367.026L124.489 366.582L127.863 364.793L128.328 364.87L129.307 364.837L129.773 364.914L130.422 365.217L131.586 365.41L132.332 365.338L132.798 365.416L133.782 364.894L134.431 365.197L135.41 365.164L136.06 365.467L137.088 365.246L137.606 364.647L137.523 363.558L138.784 363.375L139.811 363.154L140.417 363.157L141.624 363.651L142.09 363.728L143.074 363.206L143.733 362.533L144.62 362.386L144.901 362.237L144.818 361.147L146.505 360.253L147.252 360.181L148.09 360.222L148.696 360.225L148.643 360.901L148.827 361.127L149.806 361.094L151.353 360.274L151.818 360.351L152.468 360.655L152.933 360.732L153.762 361.75L152.822 362.572L152.119 362.945L152.114 363.433L152.861 363.361L153.379 362.762L153.564 362.988L155.672 361.871L156.559 361.724L157.209 362.028L157.485 362.367L159.031 361.547L159.681 361.85L160.694 363.095L160.874 363.809L161.523 364.112L161.892 364.565L162.634 364.981L163.336 364.609L164.166 365.627L164.17 365.138L164.267 364.763L164.18 364.162L163.719 363.596L163.632 362.995L163.685 362.319L163.69 361.83L164.95 361.648L165.415 361.725L166.259 361.278L166.865 361.281L167.427 360.982L168.077 361.286L168.072 361.774L169.822 363.923L170.38 364.113L170.661 363.964L171.267 363.967L171.829 363.669L172.207 363.144L173.094 362.998L173.375 362.849L173.472 362.474L173.477 361.985L174.461 361.464L175.721 361.281L176.002 361.132L176.652 361.436L176.836 361.662L177.82 361.14L178.566 361.068L178.847 360.919L179.575 362.801L179.294 362.95L179.886 364.417L179.789 364.793L179.508 364.942L179.042 364.865L178.582 364.299L177.932 363.996L177.695 364.446L177.598 364.821L177.777 365.535L178.146 365.988L177.865 366.137L178.049 366.363L179.072 366.63L180.143 366.71L181.171 366.489L181.452 366.34L182.15 366.456L181.912 366.906L181.816 367.281L182 367.507L182.465 367.584L183.168 367.212L183.827 366.538L184.249 366.315L185.189 365.492L185.708 364.894L186.27 364.595L186.609 363.282L186.056 362.603L185.13 361.961L184.669 361.395L183.782 361.542L183.133 361.238L182.948 361.012L182.386 361.31L181.504 360.968L181.32 360.742L180.67 360.439L180.389 360.588L179.463 359.945L178.634 358.927L179.996 357.881L180.742 357.809L186.364 354.828L188.095 354.235L189.176 353.338L190.722 352.518L191.996 350.871L193.363 349.336L193.978 348.362L194.598 346.9L195.679 346.003L195.776 345.628L195.693 344.538L195.509 344.312L195.606 343.936L196.871 343.266L197.758 343.119L199.866 342.001L200.06 341.251L200.487 340.539L200.865 340.015L201.383 339.416L201.761 338.891L202.1 337.578L201.916 337.352L201.174 336.935L200.806 336.483L200.999 335.732L203.529 334.391L204.276 334.319L204.373 333.944L203.253 334.052L201.285 335.095L199.889 334.864L199.06 333.846L198.972 333.244L198.696 332.905L198.424 332.077L197.411 330.833L197.231 330.119L196.863 329.666L196.213 329.363L195.568 328.571L195.481 327.97L195.626 327.407L195.907 327.258L196.285 326.733L197.449 326.926L198.195 326.854L199.31 327.235L200.193 327.577L201.123 327.731L201.865 328.148L202.418 328.826L203.586 328.531L204.148 328.233L204.609 328.798L204.512 329.173L204.134 329.698L203.713 329.921L203.247 329.844L202.501 329.916L201.614 330.062L201.056 329.872L201.517 330.438L201.982 330.515L203.33 330.934L204.076 330.862L204.963 330.716L205.71 330.644L206.694 330.122L207.804 330.991L207.707 331.366L207.891 331.592L208.449 331.783L208.914 331.86L209.661 331.788L210.082 331.564L210.732 331.868L211.008 332.207L210.49 332.806L210.209 332.955L210.393 333.181L211.925 333.826L213.598 334.397L214.669 334.477L215.595 335.12L215.682 335.721L216.429 335.649L216.71 335.5L216.526 335.274L216.579 334.598L216.157 334.821L216.118 334.032L215.512 334.03L215.381 333.128L215.386 332.639L215.114 331.812L216.748 331.593L218.236 331.938L220.049 332.434L220.98 332.588L222.327 333.007L223.161 333.537L224.184 333.804L224.737 334.483L224.64 334.858L224.635 335.347L224.539 335.722L224.907 336.174L225.649 336.591L226.202 337.269L226.943 337.686L228.141 339.156L227.962 338.441L228.199 337.992L227.312 338.138L226.662 337.835L225.372 336.251L225.566 335.501L226.356 335.73L227.379 335.997L228.494 336.378L230.123 336.648L232.038 336.28L235.858 336.522L237.069 336.527L238.519 336.083L240.244 335.978L242.062 335.986L243.604 335.654L245.097 335.51L246.265 335.215L248.359 335.562L250.089 334.969L255.009 332.36L255.528 331.761L256.187 331.088L256.705 330.489L257.267 330.191L257.975 329.33L259.095 329.222L261.906 327.732L263.355 327.287L264.717 326.241L266.544 325.272L268.517 323.741L269.641 323.145L271.241 321.649L272.602 320.603L273.969 319.068L275.147 317.796L276.043 316.673L277.691 314.99L278.505 312.777L279.304 312.029L279.837 309.965L279.473 309.024L278.921 308.346L278.179 307.929L277.714 307.852L275.9 307.356L275.716 307.13L275.352 306.189L274.984 305.736L275.221 305.287L275.323 304.423L275.42 304.048L276.035 303.074L276.413 302.549L276.936 301.462L277.218 301.313L277.411 300.563L277.188 299.547L277.847 298.874L278.089 297.936L277.721 297.483L278.196 296.584L278.438 295.646L278.35 295.044L279.897 294.225L280.643 294.153L284.438 292.14L285.097 291.467L286.081 290.945L286.881 290.198L288.19 289.828L289.358 289.532L294.699 286.7L294.883 286.926L295.906 287.194L296.74 287.723L298.286 286.904L298.752 286.981L299.581 287.999L300.279 288.114L301.292 289.358L302.126 289.888L302.591 289.965L302.872 289.816L303.799 290.459L304.443 291.25L305.418 291.705L306.16 292.122L306.994 292.652L308.007 293.896L308.555 295.063L308.923 295.515L309.849 296.158L311.847 296.88L313.888 297.903L316.908 298.893L319.371 299.693L321.368 300.415L323.647 300.989L326.487 301.264L327.137 301.567L330.535 302.033L332.634 301.892L334.544 302.013L335.896 301.943L339.44 301.846L341.262 301.365L343.274 300.623L345.004 300.029L345.848 299.582L347.578 298.989L348.46 299.33L348.645 299.557L349.11 299.634L349.391 299.485L349.575 299.711L350.322 299.639L351.301 299.606L352.047 299.534L353.031 299.012L353.497 299.089L354.2 298.717L355.227 298.496L355.93 298.123L356.676 298.051L357.515 298.092L359.333 298.1L360.036 297.728L360.782 297.656L361.059 297.995L361.892 298.525L362.45 298.715L364.418 297.672L365.164 297.6L366.429 296.929L367.51 296.032L368.314 294.796L369.492 293.524L370.156 292.362L370.859 291.989L371.939 291.092L372.841 289.481L373.5 288.807L374.212 287.458L373.848 286.517L372.835 285.273L372.471 284.332L371.453 283.577L371.177 283.237L370.711 283.16L370.527 282.934L369.601 282.291L369.417 282.065L368.951 281.988L368.122 280.97L367.332 280.741L366.503 279.723L366.464 278.934L365.858 278.932L365.489 278.479L365.266 277.464L365.082 277.238L364.995 276.636L365.43 274.948L365.993 274.65L367.161 274.354L367.907 274.282L369.075 273.987L369.914 274.028L371.46 273.208L372.449 272.198L373.011 271.9L373.811 271.152L373.966 269.613L375.085 269.505L375.512 268.793L376.074 268.495L376.268 267.744L377.058 267.973L377.8 268.389L378.633 268.919L379.094 269.485L380.631 269.641L381.373 270.058L383.287 269.691L384.029 270.107L385.75 270.49L386.492 270.907L388.252 272.079L388.896 272.871L390.249 272.801L391.693 272.845L392.993 273.452L394.2 273.945L395.649 273.501L397.181 274.146L397.831 274.45L399.319 274.794L400.952 274.576L402.862 274.697L403.876 275.941L404.622 275.869L404.899 276.208L404.424 277.108L404.327 277.483L404.269 278.647L404.357 279.249L404.255 280.112L403.552 280.485L403.64 281.087L402.471 281.382L402.093 281.906L401.109 282.428L401.197 283.029L401.745 284.196L402.477 285.59L403.772 286.685L404.979 287.178L407.538 287.603L410.335 287.577L412.997 287.138L416.259 287.19L418.028 287.385L419.841 287.881L422.023 288.83L423.23 289.324L423.599 289.776L424.525 290.419L425.964 290.951L427.734 291.146L431.922 291.841L433.275 291.771L434.016 292.188L434.201 292.414L434.666 292.491L434.288 293.016L434.046 293.954L434.23 294.18L433.697 296.244L433.882 296.47L433.785 296.845L434.25 296.922L434.711 297.488L434.333 298.012L433.717 298.986L432.874 299.433L432.632 300.372L432.816 300.598L433.281 300.675L433.887 300.678L433.466 300.901L433.461 301.39L433.267 302.14L432.749 302.739L433.394 303.531L433.297 303.906L432.735 304.204L432.269 304.127L432.914 304.918L432.396 305.517L432.58 305.744L432.483 306.119L432.105 306.643L431.121 307.165L431.766 307.956L431.485 308.106L431.669 308.332L431.432 308.781L431.427 309.27L431.049 309.794L430.53 310.393L429.871 311.066L429.353 311.665L429.067 312.303L428.873 313.053L428.539 313.878L428.253 314.516L428.622 314.968L428.103 315.567L428.006 315.942L428.001 316.43L427.808 317.181L427.289 317.78L426.911 318.304L427.091 319.019L427.459 319.471L427.498 320.26L428.104 320.263L429.302 321.733L428.318 322.255L428.963 323.046L429.05 323.648L429.879 324.666L430.529 324.969L430.805 325.308L431.639 325.838L431.819 326.552L433.385 328.475L433.288 328.85L433.652 329.791L433.119 331.855L433.066 332.531L432.964 333.395L433.328 334.335L433.459 335.238L433.92 335.803L434.192 336.631L434.371 337.345L434.362 338.322L434.401 339.111L434.207 339.862L434.294 340.463L434.474 341.178L434.421 341.854L434.605 342.08L434.784 342.794L435.798 344.039L435.885 344.64ZM435.885 344.64L436.069 344.866" stroke="black" stroke-opacity="0.8" stroke-width="1.5"/>
<circle cx="247.32" cy="418.097" r="3.47576" transform="rotate(25.6441 247.32 418.097)" fill="#EE9422"/>
<circle cx="281.345" cy="503.83" r="3.47576" transform="rotate(25.6441 281.345 503.83)" fill="#EE9422"/>
<circle cx="277.649" cy="467.356" r="3.47576" transform="rotate(25.6441 277.649 467.356)" fill="#EE9422"/>
<circle cx="254.772" cy="510.994" r="3.47576" transform="rotate(25.6441 254.772 510.994)" fill="#EE9422"/>
<circle cx="235.47" cy="519.077" r="3.47576" transform="rotate(25.6441 235.47 519.077)" fill="#EE9422"/>
<circle cx="323.649" cy="459.88" r="4.63435" transform="rotate(25.6441 323.649 459.88)" fill="#EE9422"/>
<circle cx="210.674" cy="539.945" r="3.47576" transform="rotate(25.6441 210.674 539.945)" fill="#EE9422"/>
</svg>
